<?xml version="1.0" standalone="no"?>
<!DOCTYPE svg PUBLIC "-//W3C//DTD SVG 20010904//EN"
 "http://www.w3.org/TR/2001/REC-SVG-20010904/DTD/svg10.dtd">
<svg version="1.0" xmlns="http://www.w3.org/2000/svg"
 width="512.000000pt" height="512.000000pt" viewBox="0 0 512.000000 512.000000"
 preserveAspectRatio="xMidYMid meet">
<metadata>
Created by potrace 1.11, written by Peter Selinger 2001-2013
</metadata>
<g transform="translate(0.000000,512.000000) scale(0.100000,-0.100000)"
fill="#000000" stroke="none">
<path d="M3937 4533 c-1 -1 -186 -4 -412 -7 -411 -6 -848 -13 -896 -15 l-26
-1 1 -192 c1 -106 -2 -203 -6 -214 -3 -12 -3 -25 0 -30 4 -5 4 -40 1 -79 -3
-38 -7 -62 -8 -52 -2 9 -4 20 -5 25 -1 4 -6 23 -10 42 -16 70 -87 189 -151
253 -96 96 -267 190 -410 226 -137 35 -204 38 -785 39 l-580 0 0 -1944 0
-1945 603 1 c650 1 680 3 837 57 178 61 345 188 421 319 36 64 79 176 80 212
1 27 15 -28 23 -93 6 -48 43 -144 78 -202 105 -173 317 -283 613 -319 70 -9
375 -10 440 -3 120 15 148 20 205 37 30 9 59 15 64 14 4 -2 14 2 21 8 7 6 22
13 34 15 33 6 144 62 202 101 87 58 173 155 213 237 62 130 66 170 61 552 -15
1167 -16 1183 -31 1270 -22 133 -111 267 -218 330 -48 28 -168 74 -194 74 -9
0 -34 4 -55 9 -40 11 -332 9 -379 -2 -16 -3 -38 -8 -50 -10 -58 -11 -155 -54
-182 -81 -21 -22 -35 -11 -30 23 2 15 6 115 9 222 3 107 7 251 9 320 2 69 4
143 5 165 l1 40 188 3 c103 2 304 5 447 7 143 2 277 4 297 4 36 1 37 2 48 54
18 82 23 110 24 135 1 12 3 22 6 22 3 0 12 33 19 73 7 39 15 81 18 92 2 11 6
31 9 45 3 13 12 55 20 93 8 37 14 70 14 72 0 4 -580 2 -583 -2z m-2315 -524
c47 -12 100 -64 115 -111 7 -25 11 -249 11 -715 1 -373 1 -686 2 -696 0 -16
44 -17 821 -15 l822 3 4 40 c7 75 25 119 60 152 29 28 42 33 84 33 62 0 112
-20 135 -55 14 -22 18 -52 20 -155 1 -71 5 -133 9 -139 3 -6 2 -11 -2 -11 -5
0 -6 -27 -3 -60 3 -33 2 -69 -2 -80 -4 -11 -4 -20 0 -20 4 0 8 -109 9 -243 1
-133 3 -344 4 -468 3 -255 -1 -277 -58 -304 -44 -21 -122 -21 -162 -1 -51 27
-59 58 -61 233 -1 87 -3 246 -5 353 -2 107 -4 261 -5 343 l-2 147 -836 0 -837
0 2 -437 c2 -241 0 -461 -3 -490 -10 -97 -82 -161 -185 -166 l-54 -2 0 1441 0
1441 40 -4 c21 -2 56 -8 77 -14z"/>
</g>
</svg>
